<mxfile host="app.diagrams.net" agent="Mozilla/5.0 (X11; Ubuntu; Linux x86_64; rv:142.0) Gecko/20100101 Firefox/142.0" version="28.1.1">
  <diagram name="Page-1" id="MaZ4_USWdxWsWm0Qt7zz">
    <mxGraphModel dx="2472" dy="619" grid="1" gridSize="10" guides="1" tooltips="1" connect="1" arrows="1" fold="1" page="1" pageScale="1" pageWidth="200" pageHeight="160" math="1" shadow="0">
      <root>
        <mxCell id="0" />
        <mxCell id="1" parent="0" />
        <mxCell id="M3TNASMA3s004Lqqm2Os-30" value="" style="rounded=0;whiteSpace=wrap;html=1;strokeColor=none;" parent="1" vertex="1">
          <mxGeometry x="-1590" y="-160" width="530" height="400" as="geometry" />
        </mxCell>
        <mxCell id="X0KQFQFh9XAcs2Yf_w4B-1" value="" style="ellipse;whiteSpace=wrap;html=1;aspect=fixed;fillColor=#616161;strokeColor=none;shadow=1;" parent="1" vertex="1">
          <mxGeometry x="-1380" y="-144" width="78" height="78" as="geometry" />
        </mxCell>
        <mxCell id="X0KQFQFh9XAcs2Yf_w4B-2" value="" style="sketch=0;outlineConnect=0;fontColor=#232F3E;gradientColor=none;fillColor=#000000;strokeColor=none;dashed=0;verticalLabelPosition=bottom;verticalAlign=top;align=center;html=1;fontSize=12;fontStyle=0;aspect=fixed;pointerEvents=1;shape=mxgraph.aws4.gear;" parent="1" vertex="1">
          <mxGeometry x="-1371" y="-135" width="60" height="60" as="geometry" />
        </mxCell>
        <mxCell id="X0KQFQFh9XAcs2Yf_w4B-3" value="" style="shape=image;html=1;verticalAlign=top;verticalLabelPosition=bottom;labelBackgroundColor=#ffffff;imageAspect=0;aspect=fixed;image=https://cdn0.iconfinder.com/data/icons/phosphor-light-vol-1/256/brain-light-128.png;imageBackground=#616161;" parent="1" vertex="1">
          <mxGeometry x="-1357" y="-121" width="32" height="32" as="geometry" />
        </mxCell>
        <mxCell id="X0KQFQFh9XAcs2Yf_w4B-4" value="$$\text{Modelo de}$$" style="text;html=1;align=center;verticalAlign=middle;whiteSpace=wrap;rounded=0;" parent="1" vertex="1">
          <mxGeometry x="-1371" y="-70" width="60" height="30" as="geometry" />
        </mxCell>
        <mxCell id="X0KQFQFh9XAcs2Yf_w4B-5" value="$$\text{ClasificaciÃ³n}$$" style="text;html=1;align=center;verticalAlign=middle;whiteSpace=wrap;rounded=0;" parent="1" vertex="1">
          <mxGeometry x="-1371" y="-57" width="60" height="30" as="geometry" />
        </mxCell>
        <mxCell id="X0KQFQFh9XAcs2Yf_w4B-6" value="$$X_L$$" style="strokeWidth=2;html=1;shape=mxgraph.flowchart.database;whiteSpace=wrap;fillColor=#CFE6CE;shadow=1;" parent="1" vertex="1">
          <mxGeometry x="-1550" y="-30" width="40" height="60" as="geometry" />
        </mxCell>
        <mxCell id="X0KQFQFh9XAcs2Yf_w4B-7" value="$$X_U$$" style="strokeWidth=2;html=1;shape=mxgraph.flowchart.database;whiteSpace=wrap;fillColor=#E1DFD2;shadow=1;" parent="1" vertex="1">
          <mxGeometry x="-1170" y="-43.5" width="90" height="87" as="geometry" />
        </mxCell>
        <mxCell id="X0KQFQFh9XAcs2Yf_w4B-8" value="" style="shape=mxgraph.cisco.people.androgenous_person;html=1;pointerEvents=1;dashed=0;fillColor=#000000;strokeColor=#ffffff;strokeWidth=2;verticalLabelPosition=bottom;verticalAlign=top;align=center;outlineConnect=0;shadow=1;" parent="1" vertex="1">
          <mxGeometry x="-1440" y="89" width="69" height="82" as="geometry" />
        </mxCell>
        <mxCell id="X0KQFQFh9XAcs2Yf_w4B-28" value="" style="swimlane;rounded=1;fillColor=#B3B3B3;swimlaneLine=1;shadow=1;glass=0;swimlaneFillColor=none;gradientColor=none;whiteSpace=wrap;html=1;fontColor=default;labelBackgroundColor=none;labelBorderColor=none;textShadow=0;startSize=30;" parent="1" vertex="1">
          <mxGeometry x="-1311" y="70" width="110" height="120" as="geometry">
            <mxRectangle x="-851" y="20" width="140" height="30" as="alternateBounds" />
          </mxGeometry>
        </mxCell>
        <mxCell id="M3TNASMA3s004Lqqm2Os-1" value="" style="rounded=0;whiteSpace=wrap;html=1;" parent="X0KQFQFh9XAcs2Yf_w4B-28" vertex="1">
          <mxGeometry x="15" y="44" width="80" height="66" as="geometry" />
        </mxCell>
        <mxCell id="M3TNASMA3s004Lqqm2Os-2" value="&lt;font style=&quot;font-size: 8px;&quot;&gt;$$\text{utility}$$&lt;/font&gt;" style="text;html=1;align=center;verticalAlign=middle;whiteSpace=wrap;rounded=0;" parent="X0KQFQFh9XAcs2Yf_w4B-28" vertex="1">
          <mxGeometry x="10" y="44" width="90" height="16" as="geometry" />
        </mxCell>
        <mxCell id="M3TNASMA3s004Lqqm2Os-3" value="$$\text{Query strategy}$$" style="text;html=1;align=center;verticalAlign=middle;whiteSpace=wrap;rounded=0;" parent="X0KQFQFh9XAcs2Yf_w4B-28" vertex="1">
          <mxGeometry x="26" y="7" width="60" height="20" as="geometry" />
        </mxCell>
        <mxCell id="M3TNASMA3s004Lqqm2Os-5" value="$$u_1$$" style="text;html=1;align=center;verticalAlign=middle;whiteSpace=wrap;rounded=0;" parent="X0KQFQFh9XAcs2Yf_w4B-28" vertex="1">
          <mxGeometry x="46" y="55" width="18" height="11" as="geometry" />
        </mxCell>
        <mxCell id="M3TNASMA3s004Lqqm2Os-6" value="$$u_2$$" style="text;html=1;align=center;verticalAlign=middle;whiteSpace=wrap;rounded=0;" parent="X0KQFQFh9XAcs2Yf_w4B-28" vertex="1">
          <mxGeometry x="46" y="66" width="18" height="11" as="geometry" />
        </mxCell>
        <mxCell id="M3TNASMA3s004Lqqm2Os-7" value="&lt;font style=&quot;font-size: 10px;&quot;&gt;$$?$$&lt;/font&gt;" style="text;html=1;align=center;verticalAlign=middle;whiteSpace=wrap;rounded=0;" parent="X0KQFQFh9XAcs2Yf_w4B-28" vertex="1">
          <mxGeometry x="12" y="58" width="18" height="11" as="geometry" />
        </mxCell>
        <mxCell id="M3TNASMA3s004Lqqm2Os-9" value="" style="endArrow=none;dashed=1;html=1;dashPattern=1 3;strokeWidth=2;rounded=0;" parent="X0KQFQFh9XAcs2Yf_w4B-28" edge="1">
          <mxGeometry width="50" height="50" relative="1" as="geometry">
            <mxPoint x="20.899999999999977" y="102" as="sourcePoint" />
            <mxPoint x="20.899999999999977" y="82" as="targetPoint" />
          </mxGeometry>
        </mxCell>
        <mxCell id="M3TNASMA3s004Lqqm2Os-8" value="&lt;font style=&quot;font-size: 10px;&quot;&gt;$$?$$&lt;/font&gt;" style="text;html=1;align=center;verticalAlign=middle;whiteSpace=wrap;rounded=0;" parent="1" vertex="1">
          <mxGeometry x="-1299" y="139" width="18" height="11" as="geometry" />
        </mxCell>
        <mxCell id="M3TNASMA3s004Lqqm2Os-10" value="" style="endArrow=none;dashed=1;html=1;dashPattern=1 3;strokeWidth=2;rounded=0;" parent="1" edge="1">
          <mxGeometry width="50" height="50" relative="1" as="geometry">
            <mxPoint x="-1257.1" y="172" as="sourcePoint" />
            <mxPoint x="-1257.1" y="152" as="targetPoint" />
          </mxGeometry>
        </mxCell>
        <mxCell id="M3TNASMA3s004Lqqm2Os-11" value="$$\text{Labeled data}$$" style="text;html=1;align=center;verticalAlign=middle;whiteSpace=wrap;rounded=0;" parent="1" vertex="1">
          <mxGeometry x="-1560" y="39" width="60" height="30" as="geometry" />
        </mxCell>
        <mxCell id="M3TNASMA3s004Lqqm2Os-12" value="$$\text{Unlabeled data}$$" style="text;html=1;align=center;verticalAlign=middle;whiteSpace=wrap;rounded=0;" parent="1" vertex="1">
          <mxGeometry x="-1155" y="43.5" width="60" height="30" as="geometry" />
        </mxCell>
        <mxCell id="M3TNASMA3s004Lqqm2Os-13" value="$$\text{Expert/Annotator}$$" style="text;html=1;align=center;verticalAlign=middle;whiteSpace=wrap;rounded=0;" parent="1" vertex="1">
          <mxGeometry x="-1435" y="190" width="60" height="30" as="geometry" />
        </mxCell>
        <mxCell id="M3TNASMA3s004Lqqm2Os-17" value="" style="endArrow=open;html=1;rounded=0;exitX=0.5;exitY=1;exitDx=0;exitDy=0;entryX=1;entryY=0.5;entryDx=0;entryDy=0;curved=1;endFill=0;strokeWidth=2;" parent="1" source="M3TNASMA3s004Lqqm2Os-12" edge="1">
          <mxGeometry width="50" height="50" relative="1" as="geometry">
            <mxPoint x="-1122" y="82.5" as="sourcePoint" />
            <mxPoint x="-1198" y="139" as="targetPoint" />
            <Array as="points">
              <mxPoint x="-1122" y="139" />
            </Array>
          </mxGeometry>
        </mxCell>
        <mxCell id="M3TNASMA3s004Lqqm2Os-19" value="" style="endArrow=open;html=1;rounded=0;entryX=0.5;entryY=1;entryDx=0;entryDy=0;exitX=0.01;exitY=0.5;exitDx=0;exitDy=0;exitPerimeter=0;strokeWidth=2;endFill=0;curved=1;" parent="1" target="M3TNASMA3s004Lqqm2Os-11" edge="1">
          <mxGeometry width="50" height="50" relative="1" as="geometry">
            <mxPoint x="-1443.31" y="138" as="sourcePoint" />
            <mxPoint x="-1534" y="77" as="targetPoint" />
            <Array as="points">
              <mxPoint x="-1534" y="138" />
            </Array>
          </mxGeometry>
        </mxCell>
        <mxCell id="M3TNASMA3s004Lqqm2Os-20" value="" style="endArrow=open;html=1;rounded=0;endFill=0;strokeWidth=2;" parent="1" edge="1">
          <mxGeometry width="50" height="50" relative="1" as="geometry">
            <mxPoint x="-1320" y="140" as="sourcePoint" />
            <mxPoint x="-1360" y="140" as="targetPoint" />
          </mxGeometry>
        </mxCell>
        <mxCell id="M3TNASMA3s004Lqqm2Os-21" value="" style="endArrow=open;html=1;rounded=0;exitX=0.5;exitY=0;exitDx=0;exitDy=0;exitPerimeter=0;entryX=0;entryY=0.5;entryDx=0;entryDy=0;strokeWidth=2;endFill=0;curved=1;" parent="1" edge="1">
          <mxGeometry width="50" height="50" relative="1" as="geometry">
            <mxPoint x="-1534" y="-32.99999999999994" as="sourcePoint" />
            <mxPoint x="-1383.9999999999998" y="-108" as="targetPoint" />
            <Array as="points">
              <mxPoint x="-1534" y="-108" />
            </Array>
          </mxGeometry>
        </mxCell>
        <mxCell id="M3TNASMA3s004Lqqm2Os-22" value="" style="endArrow=open;html=1;rounded=0;exitX=1;exitY=0.5;exitDx=0;exitDy=0;entryX=0.5;entryY=0;entryDx=0;entryDy=0;entryPerimeter=0;strokeWidth=2;endFill=0;curved=1;" parent="1" edge="1">
          <mxGeometry width="50" height="50" relative="1" as="geometry">
            <mxPoint x="-1299.0000000000007" y="-112" as="sourcePoint" />
            <mxPoint x="-1125" y="-46.5" as="targetPoint" />
            <Array as="points">
              <mxPoint x="-1122" y="-112" />
            </Array>
          </mxGeometry>
        </mxCell>
        <mxCell id="M3TNASMA3s004Lqqm2Os-23" value="$$\text{Re-training}$$" style="text;html=1;align=center;verticalAlign=middle;whiteSpace=wrap;rounded=0;" parent="1" vertex="1">
          <mxGeometry x="-1540" y="-135" width="60" height="30" as="geometry" />
        </mxCell>
        <mxCell id="M3TNASMA3s004Lqqm2Os-25" value="$$\text{Prediction}$$" style="text;html=1;align=center;verticalAlign=middle;whiteSpace=wrap;rounded=0;" parent="1" vertex="1">
          <mxGeometry x="-1204" y="-135" width="60" height="30" as="geometry" />
        </mxCell>
        <mxCell id="M3TNASMA3s004Lqqm2Os-26" value="$$\text{Samples selection}$$" style="text;html=1;align=center;verticalAlign=middle;whiteSpace=wrap;rounded=0;" parent="1" vertex="1">
          <mxGeometry x="-1204" y="190" width="60" height="30" as="geometry" />
        </mxCell>
        <mxCell id="M3TNASMA3s004Lqqm2Os-28" value="$$\langle\textbf{X}^{*},?\rangle$$" style="text;html=1;align=center;verticalAlign=middle;whiteSpace=wrap;rounded=0;" parent="1" vertex="1">
          <mxGeometry x="-1371" y="100" width="60" height="30" as="geometry" />
        </mxCell>
        <mxCell id="M3TNASMA3s004Lqqm2Os-29" value="$$\langle\textbf{X}^{*},y^{*}\rangle$$" style="text;html=1;align=center;verticalAlign=middle;whiteSpace=wrap;rounded=0;" parent="1" vertex="1">
          <mxGeometry x="-1510" y="80" width="60" height="30" as="geometry" />
        </mxCell>
      </root>
    </mxGraphModel>
  </diagram>
</mxfile>
